<svg width="18" height="19" viewBox="0 0 18 19" fill="none" xmlns="http://www.w3.org/2000/svg">
<path d="M6.63332 9.05834C6.54999 9.05001 6.44999 9.05001 6.35832 9.05834C4.37499 8.99167 2.79999 7.36667 2.79999 5.36667C2.79999 3.32501 4.44999 1.66667 6.49999 1.66667C8.54165 1.66667 10.2 3.32501 10.2 5.36667C10.1917 7.36667 8.61665 8.99167 6.63332 9.05834Z" stroke="#65717C" stroke-width="1.5" stroke-linecap="round" stroke-linejoin="round"/>
<path d="M12.675 3.33333C14.2916 3.33333 15.5917 4.64166 15.5917 6.25C15.5917 7.825 14.3417 9.10833 12.7833 9.16666C12.7167 9.15833 12.6417 9.15833 12.5667 9.16666" stroke="#65717C" stroke-width="1.5" stroke-linecap="round" stroke-linejoin="round"/>
<path d="M2.46666 12.1333C0.449996 13.4833 0.449996 15.6833 2.46666 17.025C4.75833 18.5583 8.51666 18.5583 10.8083 17.025C12.825 15.675 12.825 13.475 10.8083 12.1333C8.525 10.6083 4.76666 10.6083 2.46666 12.1333Z" stroke="#65717C" stroke-width="1.5" stroke-linecap="round" stroke-linejoin="round"/>
<path d="M14.2833 16.6667C14.8833 16.5417 15.45 16.3 15.9167 15.9417C17.2167 14.9667 17.2167 13.3583 15.9167 12.3833C15.4583 12.0333 14.9 11.8 14.3083 11.6667" stroke="#65717C" stroke-width="1.5" stroke-linecap="round" stroke-linejoin="round"/>
</svg>
