<svg width="22" height="28" viewBox="0 0 22 28" fill="none" xmlns="http://www.w3.org/2000/svg">
<path fill-rule="evenodd" clip-rule="evenodd" d="M13.9147 12.2982C15.8233 13.5202 16.9796 15.8155 16.531 18.3351C16.1211 20.6323 14.2705 22.5234 11.9849 23.003C8.21426 23.7958 4.86707 20.8508 4.86707 17.2078V8.25677V4.86707C4.86707 2.17925 2.68781 0 0 0V17.2542H0.00193368C0.00386736 23.9234 6.03501 29.154 12.9711 27.7792C17.0415 26.9728 20.352 23.7146 21.2318 19.6597C22.7478 12.6752 17.4688 6.50679 10.7474 6.50679C10.7474 8.8504 11.9405 11.0335 13.9147 12.2982Z" fill="url(#paint0_linear_1_2023)"/>
<defs>
<linearGradient id="paint0_linear_1_2023" x1="4.41428" y1="3.79699e-07" x2="22.6343" y2="23.7357" gradientUnits="userSpaceOnUse">
<stop stop-color="#00B0FF"/>
<stop offset="0.524899" stop-color="#3D5AFE"/>
<stop offset="1" stop-color="#5444F2"/>
</linearGradient>
</defs>
</svg>
