<svg width="63" height="26" viewBox="0 0 61 24" fill="none" xmlns="http://www.w3.org/2000/svg">
<path fill-rule="evenodd" clip-rule="evenodd" d="M27.7288 6.05205C29.0727 6.05205 30.2445 6.31503 31.2462 6.84099C32.2478 7.36888 33.0484 8.0244 33.6478 8.80947V6.3305H35.276C36.3433 6.3305 37.2096 7.19678 37.2096 8.26417V23.401H33.6478V20.8601C33.0484 21.6665 32.2323 22.3375 31.1998 22.8731C30.1672 23.4107 28.9896 23.6794 27.6669 23.6794C26.2012 23.6794 24.8592 23.3024 23.641 22.5482C22.4209 21.7941 21.456 20.7422 20.7444 19.3886C20.0309 18.037 19.6751 16.5016 19.6751 14.7884C19.6751 13.0732 20.0309 11.5553 20.7444 10.2346C21.456 8.91195 22.4267 7.88517 23.6565 7.15231C24.8844 6.41945 26.2418 6.05205 27.7288 6.05205ZM1.83477 0.475128C2.90409 0.475128 3.76844 1.34142 3.76844 2.40881V8.87115C4.36788 8.04547 5.18969 7.36869 6.23195 6.84079C7.2742 6.31483 8.43634 6.05185 9.71643 6.05185C11.2247 6.05185 12.5879 6.41345 13.8062 7.13665C15.0244 7.85984 15.9854 8.88663 16.6873 10.2189C17.3893 11.5512 17.7412 13.073 17.7412 14.7882C17.7412 16.5034 17.3893 18.0368 16.6873 19.3884C15.9854 20.742 15.0205 21.7939 13.7907 22.5481C12.5628 23.3022 11.2034 23.6793 9.71643 23.6793C8.39573 23.6793 7.22392 23.4201 6.20101 22.9039C5.17809 22.3895 4.36788 21.7282 3.76844 20.9218V23.4008H0.237549V0.475128H1.83477ZM60.2217 6.3303V23.4008H56.6908V6.3303H60.2217ZM47.7567 6.05263C49.0986 6.05263 50.3014 6.33108 51.3649 6.88798C52.4284 7.44487 53.2599 8.27249 53.8594 9.36695C54.4569 10.4614 54.7566 11.7821 54.7566 13.3329V23.3996H53.1903C52.1229 23.3996 51.2566 22.5353 51.2566 21.466V13.8589C51.2566 12.3313 50.8738 11.1575 50.11 10.3415C49.3462 9.52745 48.302 9.11944 46.9813 9.11944C45.6586 9.11944 44.6106 9.52745 43.8371 10.3415C43.0617 11.1575 42.675 12.3313 42.675 13.8589V23.3996H39.1441V6.33108H42.675V8.28216C43.2531 7.58023 43.9918 7.033 44.891 6.64046C45.7882 6.24793 46.7434 6.05263 47.7567 6.05263ZM28.4733 9.11886C27.5645 9.11886 26.7175 9.34123 25.9324 9.78404C25.1474 10.2288 24.5131 10.8804 24.0278 11.7371C23.5424 12.5937 23.2988 13.6108 23.2988 14.7884C23.2988 15.966 23.5424 16.9986 24.0278 17.8862C24.5131 18.7737 25.1532 19.4505 25.9479 19.9146C26.7426 20.3806 27.5857 20.6126 28.4733 20.6126C29.3821 20.6126 30.2291 20.3845 31.0141 19.93C31.7992 19.4776 32.4334 18.8104 32.9188 17.9326C33.4042 17.0547 33.6478 16.0279 33.6478 14.8503C33.6478 13.6727 33.4042 12.6498 32.9188 11.7835C32.4334 10.9152 31.7992 10.2539 31.0141 9.79951C30.2291 9.34703 29.3821 9.11886 28.4733 9.11886ZM8.94296 9.11867C8.0554 9.11867 7.21232 9.34684 6.41758 9.79932C5.62284 10.2537 4.98279 10.9151 4.49744 11.7833C4.01208 12.6496 3.76844 13.6725 3.76844 14.8501C3.76844 16.0277 4.01208 17.0545 4.49744 17.9324C4.98279 18.8103 5.62284 19.4774 6.41758 19.9299C7.21232 20.3843 8.0554 20.6124 8.94296 20.6124C9.85179 20.6124 10.7026 20.3804 11.4993 19.9144C12.294 19.4503 12.9341 18.7735 13.4194 17.886C13.9048 16.9984 14.1484 15.9658 14.1484 14.7882C14.1484 13.6106 13.9048 12.5935 13.4194 11.7369C12.9341 10.8802 12.294 10.2286 11.4993 9.78385C10.7026 9.34104 9.85179 9.11867 8.94296 9.11867ZM58.2888 0.475128C59.3403 0.475128 60.1966 1.31575 60.2219 2.36115L60.2225 2.40881V4.00602H56.6916V0.475128H58.2888Z" fill="black"/>
</svg>
