<svg width="18" height="18" viewBox="0 0 18 18" fill="none" xmlns="http://www.w3.org/2000/svg">
<path d="M6.83249 15.75L11.16 15.75C12.75 15.75 12.75 15.75 13.7625 14.25L16.1475 10.125C16.5075 9.5025 16.5075 8.49 16.1475 7.875L13.7625 3.75C12.75 2.25 12.75 2.25 11.1675 2.25L6.83249 2.25C5.24999 2.25 5.24999 2.25 4.23749 3.75L1.85249 7.875C1.49249 8.49 1.49249 9.5025 1.85249 10.125L4.23749 14.25C5.24999 15.75 5.24999 15.75 6.83249 15.75Z" stroke="#5444F2" stroke-width="1.5" stroke-linecap="round" stroke-linejoin="round"/>
<path d="M11.25 9C11.25 7.75736 10.2426 6.75 9 6.75C7.75736 6.75 6.75 7.75736 6.75 9C6.75 10.2426 7.75736 11.25 9 11.25C10.2426 11.25 11.25 10.2426 11.25 9Z" fill="white" stroke="#5444F2" stroke-width="1.5" stroke-linecap="round" stroke-linejoin="round"/>
</svg>
