<svg width="16" height="16" viewBox="0 0 16 16" fill="none" xmlns="http://www.w3.org/2000/svg">
<path d="M13.3333 4.63332V11.3667C13.2267 11.3467 13.1133 11.3333 13 11.3333C12.08 11.3333 11.3333 12.08 11.3333 13C11.3333 13.1133 11.3467 13.2267 11.3667 13.3333H4.63333C4.65333 13.2267 4.66666 13.1133 4.66666 13C4.66666 12.08 3.92 11.3333 3 11.3333C2.88666 11.3333 2.77333 11.3467 2.66666 11.3667V4.63332C2.77333 4.65332 2.88666 4.66666 3 4.66666C3.92 4.66666 4.66666 3.91999 4.66666 2.99999C4.66666 2.88666 4.65333 2.77332 4.63333 2.66666H11.3667C11.3467 2.77332 11.3333 2.88666 11.3333 2.99999C11.3333 3.91999 12.08 4.66666 13 4.66666C13.1133 4.66666 13.2267 4.65332 13.3333 4.63332Z" stroke="#B01AF7" stroke-width="1.5" stroke-linecap="round" stroke-linejoin="round"/>
<path d="M4.66667 3.00001C4.66667 3.92001 3.92 4.66668 3 4.66668C2.88667 4.66668 2.77334 4.65334 2.66667 4.63334C1.90667 4.48001 1.33334 3.80668 1.33334 3.00001C1.33334 2.08001 2.08 1.33334 3 1.33334C3.80667 1.33334 4.48 1.90668 4.63334 2.66668C4.65334 2.77334 4.66667 2.88668 4.66667 3.00001Z" stroke="#B01AF7" stroke-width="1.5" stroke-linecap="round" stroke-linejoin="round"/>
<path d="M14.6667 3.00001C14.6667 3.80668 14.0933 4.48001 13.3333 4.63334C13.2267 4.65334 13.1133 4.66668 13 4.66668C12.08 4.66668 11.3333 3.92001 11.3333 3.00001C11.3333 2.88668 11.3467 2.77334 11.3667 2.66668C11.52 1.90668 12.1933 1.33334 13 1.33334C13.92 1.33334 14.6667 2.08001 14.6667 3.00001Z" stroke="#B01AF7" stroke-width="1.5" stroke-linecap="round" stroke-linejoin="round"/>
<path d="M4.66667 13C4.66667 13.1133 4.65334 13.2267 4.63334 13.3333C4.48 14.0933 3.80667 14.6667 3 14.6667C2.08 14.6667 1.33334 13.92 1.33334 13C1.33334 12.1933 1.90667 11.52 2.66667 11.3667C2.77334 11.3467 2.88667 11.3333 3 11.3333C3.92 11.3333 4.66667 12.08 4.66667 13Z" stroke="#B01AF7" stroke-width="1.5" stroke-linecap="round" stroke-linejoin="round"/>
<path d="M14.6667 13C14.6667 13.92 13.92 14.6667 13 14.6667C12.1933 14.6667 11.52 14.0933 11.3667 13.3333C11.3467 13.2267 11.3333 13.1133 11.3333 13C11.3333 12.08 12.08 11.3333 13 11.3333C13.1133 11.3333 13.2267 11.3467 13.3333 11.3667C14.0933 11.52 14.6667 12.1933 14.6667 13Z" stroke="#B01AF7" stroke-width="1.5" stroke-linecap="round" stroke-linejoin="round"/>
</svg>
