<svg width="36" height="36" viewBox="0 0 36 36" fill="none" xmlns="http://www.w3.org/2000/svg">
<rect x="0.5" y="0.5" width="35" height="35" rx="7.5" fill="white"/>
<path d="M23.2667 19H12.7333C11.7333 19 11.3333 19.4267 11.3333 20.4867V23.18C11.3333 24.24 11.7333 24.6667 12.7333 24.6667H23.2667C24.2667 24.6667 24.6667 24.24 24.6667 23.18V20.4867C24.6667 19.4267 24.2667 19 23.2667 19Z" fill="white" stroke="#65717C" stroke-width="1.5" stroke-linecap="round" stroke-linejoin="round"/>
<path d="M23.2667 11.3333H12.7333C11.7333 11.3333 11.3333 11.76 11.3333 12.82V15.5133C11.3333 16.5733 11.7333 17 12.7333 17H23.2667C24.2667 17 24.6667 16.5733 24.6667 15.5133V12.82C24.6667 11.76 24.2667 11.3333 23.2667 11.3333Z" fill="white" stroke="#65717C" stroke-width="1.5" stroke-linecap="round" stroke-linejoin="round"/>
<rect x="0.5" y="0.5" width="35" height="35" rx="7.5" stroke="#E1E1E1"/>
</svg>
