<svg width="18" height="20" viewBox="0 0 18 20" fill="none" xmlns="http://www.w3.org/2000/svg">
<path d="M17.0584 11.9167L16.725 16.0833C16.6 17.3583 16.5 18.3333 14.2417 18.3333H3.75836C1.50003 18.3333 1.40003 17.3583 1.27503 16.0833L0.941696 11.9167C0.875029 11.225 1.0917 10.5833 1.48336 10.0917C1.4917 10.0833 1.4917 10.0833 1.50003 10.075C1.95836 9.51667 2.65003 9.16667 3.42503 9.16667H14.575C15.35 9.16667 16.0334 9.51667 16.4834 10.0583C16.4917 10.0667 16.5 10.075 16.5 10.0833C16.9084 10.575 17.1334 11.2167 17.0584 11.9167Z" stroke="#5444F2" stroke-width="1.5" stroke-miterlimit="10"/>
<path d="M1.91669 9.525V5.23333C1.91669 2.4 2.62502 1.69167 5.45835 1.69167H6.51669C7.57502 1.69167 7.81669 2.00833 8.21669 2.54167L9.27502 3.95833C9.54169 4.30833 9.70002 4.525 10.4084 4.525H12.5334C15.3667 4.525 16.075 5.23333 16.075 8.06667V9.55833" stroke="#5444F2" stroke-width="1.5" stroke-miterlimit="10" stroke-linecap="round" stroke-linejoin="round"/>
<path d="M6.85834 14.1667H11.1417" stroke="#5444F2" stroke-width="1.5" stroke-miterlimit="10" stroke-linecap="round" stroke-linejoin="round"/>
</svg>
